<svg width="230" height="93" viewBox="0 0 230 93" fill="none" xmlns="http://www.w3.org/2000/svg">
<path fill-rule="evenodd" clip-rule="evenodd" d="M53.8398 0.21875C52.9022 0.21875 52.0053 0.601738 51.3569 1.27898L1.18017 53.6857C-0.912957 55.8719 0.636526 59.5005 3.66313 59.5005H82.0486V57.5005H3.66313C2.39743 57.5005 1.74948 55.9831 2.62478 55.0689L52.8015 2.66212C53.0726 2.37891 53.4477 2.21875 53.8398 2.21875H177.274C177.672 2.21875 178.052 2.38351 178.324 2.67383L227.385 55.0806C228.245 55.9989 227.594 57.5005 226.336 57.5005H114.955V59.5005H226.336C229.344 59.5005 230.901 55.9098 228.845 53.7137L179.784 1.30699C179.134 0.61273 178.225 0.21875 177.274 0.21875H53.8398Z" fill="#353E5A"/>
<rect x="83.2676" y="26.8128" width="30.469" height="64.5944" rx="3.65629" fill="#A4A4A4" fill-opacity="0.14" stroke="#353E5A" stroke-width="2.43752" stroke-linejoin="round"/>
<path d="M113.127 67.0321L94.8457 27.4224L113.127 28.0317V67.0321Z" fill="#C6C6C6" fill-opacity="0.44" stroke="#353E5A" stroke-width="1.21876"/>
<rect x="89.9717" y="26.2034" width="17.0627" height="3.65629" rx="1.82814" fill="white" stroke="#353E5A" stroke-width="1.21876"/>
<path d="M132.628 35.9531C132.628 36.1598 132.485 36.451 132.031 36.7233C131.59 36.9883 130.94 37.1719 130.19 37.1719C129.441 37.1719 128.791 36.9883 128.349 36.7233C127.896 36.451 127.753 36.1598 127.753 35.9531C127.753 35.7465 127.896 35.4552 128.349 35.183C128.791 34.918 129.441 34.7344 130.19 34.7344C130.94 34.7344 131.59 34.918 132.031 35.183C132.485 35.4552 132.628 35.7465 132.628 35.9531Z" fill="white" stroke="#353E5A" stroke-width="1.21876"/>
<path d="M132.628 46.9221C132.628 47.1288 132.485 47.42 132.031 47.6923C131.59 47.9573 130.94 48.1409 130.19 48.1409C129.441 48.1409 128.791 47.9573 128.349 47.6923C127.896 47.42 127.753 47.1288 127.753 46.9221C127.753 46.7155 127.896 46.4242 128.349 46.152C128.791 45.887 129.441 45.7034 130.19 45.7034C130.94 45.7034 131.59 45.887 132.031 46.152C132.485 46.4242 132.628 46.7155 132.628 46.9221Z" fill="white" fill-opacity="0.77" stroke="#353E5A" stroke-width="1.21876"/>
<path d="M132.628 24.9844C132.628 25.1911 132.485 25.4823 132.031 25.7545C131.59 26.0195 130.94 26.2032 130.19 26.2032C129.441 26.2032 128.791 26.0195 128.349 25.7545C127.896 25.4823 127.753 25.1911 127.753 24.9844C127.753 24.7777 127.896 24.4865 128.349 24.2142C128.791 23.9493 129.441 23.7656 130.19 23.7656C130.94 23.7656 131.59 23.9493 132.031 24.2142C132.485 24.4865 132.628 24.7777 132.628 24.9844Z" fill="white" fill-opacity="0.77" stroke="#353E5A" stroke-width="1.21876"/>
<path d="M146.04 25.5605C146.04 25.5605 146.039 25.5616 146.038 25.5637C146.039 25.5616 146.04 25.5605 146.04 25.5605ZM145.985 25.5621C145.998 25.5744 146.008 25.585 146.016 25.5938C146.008 25.6026 145.998 25.6131 145.985 25.6254C145.906 25.7006 145.758 25.7965 145.525 25.8898C145.062 26.075 144.38 26.2031 143.597 26.2031C142.813 26.2031 142.132 26.075 141.669 25.8898C141.435 25.7965 141.288 25.7006 141.208 25.6254C141.195 25.6131 141.185 25.6026 141.177 25.5938C141.185 25.585 141.195 25.5744 141.208 25.5621C141.288 25.4869 141.435 25.391 141.669 25.2978C142.132 25.1126 142.813 24.9844 143.597 24.9844C144.38 24.9844 145.062 25.1126 145.525 25.2978C145.758 25.391 145.906 25.4869 145.985 25.5621ZM141.154 25.5605C141.154 25.5605 141.154 25.5616 141.155 25.5637C141.154 25.5616 141.154 25.5605 141.154 25.5605ZM141.154 25.627C141.154 25.627 141.154 25.6259 141.155 25.6238C141.154 25.626 141.154 25.627 141.154 25.627ZM146.038 25.6238C146.039 25.6259 146.04 25.627 146.04 25.627C146.04 25.627 146.039 25.626 146.038 25.6238Z" fill="white" fill-opacity="0.77" stroke="#353E5A" stroke-width="1.21876"/>
<path d="M116.79 25.5605C116.79 25.5605 116.789 25.5616 116.788 25.5637C116.789 25.5616 116.79 25.5605 116.79 25.5605ZM116.735 25.5621C116.748 25.5744 116.758 25.585 116.766 25.5938C116.758 25.6026 116.748 25.6131 116.735 25.6254C116.656 25.7006 116.508 25.7965 116.275 25.8898C115.812 26.075 115.13 26.2031 114.347 26.2031C113.563 26.2031 112.882 26.075 112.419 25.8898C112.185 25.7965 112.038 25.7006 111.958 25.6254C111.945 25.6131 111.935 25.6026 111.927 25.5938C111.935 25.585 111.945 25.5744 111.958 25.5621C112.038 25.4869 112.185 25.391 112.419 25.2978C112.882 25.1126 113.563 24.9844 114.347 24.9844C115.13 24.9844 115.812 25.1126 116.275 25.2978C116.508 25.391 116.656 25.4869 116.735 25.5621ZM111.904 25.5605C111.904 25.5605 111.904 25.5616 111.905 25.5637C111.904 25.5616 111.904 25.5605 111.904 25.5605ZM111.904 25.627C111.904 25.627 111.904 25.6259 111.905 25.6238C111.904 25.626 111.904 25.627 111.904 25.627ZM116.788 25.6238C116.789 25.6259 116.79 25.627 116.79 25.627C116.79 25.627 116.789 25.626 116.788 25.6238Z" fill="white" fill-opacity="0.77" stroke="#353E5A" stroke-width="1.21876"/>
<path d="M118.008 35.3105C118.009 35.3105 118.008 35.3116 118.007 35.3137C118.008 35.3116 118.008 35.3105 118.008 35.3105ZM117.954 35.3121C117.967 35.3244 117.977 35.335 117.985 35.3438C117.977 35.3526 117.967 35.3631 117.954 35.3754C117.875 35.4506 117.727 35.5465 117.494 35.6398C117.031 35.825 116.349 35.9531 115.565 35.9531C114.782 35.9531 114.1 35.825 113.637 35.6398C113.404 35.5465 113.256 35.4506 113.177 35.3754C113.164 35.3631 113.154 35.3526 113.146 35.3438C113.154 35.335 113.164 35.3244 113.177 35.3121C113.256 35.2369 113.404 35.141 113.637 35.0478C114.1 34.8626 114.782 34.7344 115.565 34.7344C116.349 34.7344 117.031 34.8626 117.494 35.0478C117.727 35.141 117.875 35.2369 117.954 35.3121ZM113.123 35.3105C113.123 35.3105 113.123 35.3116 113.124 35.3137C113.123 35.3116 113.122 35.3105 113.123 35.3105ZM113.123 35.377C113.122 35.377 113.123 35.3759 113.124 35.3738C113.123 35.376 113.123 35.377 113.123 35.377ZM118.007 35.3738C118.008 35.3759 118.009 35.377 118.008 35.377C118.008 35.377 118.008 35.376 118.007 35.3738Z" fill="white" fill-opacity="0.77" stroke="#353E5A" stroke-width="1.21876"/>
<path d="M118.008 46.2795C118.009 46.2795 118.008 46.2806 118.007 46.2827C118.008 46.2806 118.008 46.2795 118.008 46.2795ZM117.954 46.2811C117.967 46.2934 117.977 46.304 117.985 46.3128C117.977 46.3216 117.967 46.3321 117.954 46.3444C117.875 46.4196 117.727 46.5155 117.494 46.6088C117.031 46.794 116.349 46.9221 115.565 46.9221C114.782 46.9221 114.1 46.794 113.637 46.6088C113.404 46.5155 113.256 46.4196 113.177 46.3444C113.164 46.3321 113.154 46.3216 113.146 46.3128C113.154 46.304 113.164 46.2934 113.177 46.2811C113.256 46.2059 113.404 46.11 113.637 46.0168C114.1 45.8315 114.782 45.7034 115.565 45.7034C116.349 45.7034 117.031 45.8315 117.494 46.0168C117.727 46.11 117.875 46.2059 117.954 46.2811ZM113.123 46.2795C113.123 46.2795 113.123 46.2806 113.124 46.2827C113.123 46.2806 113.122 46.2795 113.123 46.2795ZM113.123 46.346C113.122 46.346 113.123 46.3449 113.124 46.3428C113.123 46.3449 113.123 46.346 113.123 46.346ZM118.007 46.3428C118.008 46.3449 118.009 46.346 118.008 46.346C118.008 46.346 118.008 46.3449 118.007 46.3428Z" fill="white" fill-opacity="0.77" stroke="#353E5A" stroke-width="1.21876"/>
<path d="M146.04 35.3105C146.04 35.3105 146.039 35.3116 146.038 35.3137C146.039 35.3116 146.04 35.3105 146.04 35.3105ZM145.985 35.3121C145.998 35.3244 146.008 35.335 146.016 35.3438C146.008 35.3526 145.998 35.3631 145.985 35.3754C145.906 35.4506 145.758 35.5465 145.525 35.6398C145.062 35.825 144.38 35.9531 143.597 35.9531C142.813 35.9531 142.132 35.825 141.669 35.6398C141.435 35.5465 141.288 35.4506 141.208 35.3754C141.195 35.3631 141.185 35.3526 141.177 35.3438C141.185 35.335 141.195 35.3244 141.208 35.3121C141.288 35.2369 141.435 35.141 141.669 35.0478C142.132 34.8626 142.813 34.7344 143.597 34.7344C144.38 34.7344 145.062 34.8626 145.525 35.0478C145.758 35.141 145.906 35.2369 145.985 35.3121ZM141.154 35.3105C141.154 35.3105 141.154 35.3116 141.155 35.3137C141.154 35.3116 141.154 35.3105 141.154 35.3105ZM141.154 35.377C141.154 35.377 141.154 35.3759 141.155 35.3738C141.154 35.376 141.154 35.377 141.154 35.377ZM146.038 35.3738C146.039 35.3759 146.04 35.377 146.04 35.377C146.04 35.377 146.039 35.376 146.038 35.3738Z" fill="white" fill-opacity="0.77" stroke="#353E5A" stroke-width="1.21876"/>
<path d="M146.04 46.2795C146.04 46.2795 146.039 46.2806 146.038 46.2827C146.039 46.2806 146.04 46.2795 146.04 46.2795ZM145.985 46.2811C145.998 46.2934 146.008 46.304 146.016 46.3128C146.008 46.3216 145.998 46.3321 145.985 46.3444C145.906 46.4196 145.758 46.5155 145.525 46.6088C145.062 46.794 144.38 46.9221 143.597 46.9221C142.813 46.9221 142.132 46.794 141.669 46.6088C141.435 46.5155 141.288 46.4196 141.208 46.3444C141.195 46.3321 141.185 46.3216 141.177 46.3128C141.185 46.304 141.195 46.2934 141.208 46.2811C141.288 46.2059 141.435 46.11 141.669 46.0168C142.132 45.8315 142.813 45.7034 143.597 45.7034C144.38 45.7034 145.062 45.8315 145.525 46.0168C145.758 46.11 145.906 46.2059 145.985 46.2811ZM141.154 46.2795C141.154 46.2795 141.154 46.2806 141.155 46.2827C141.154 46.2806 141.154 46.2795 141.154 46.2795ZM141.154 46.346C141.154 46.346 141.154 46.3449 141.155 46.3428C141.154 46.3449 141.154 46.346 141.154 46.346ZM146.038 46.3428C146.039 46.3449 146.04 46.346 146.04 46.346C146.04 46.346 146.039 46.3449 146.038 46.3428Z" fill="white" fill-opacity="0.77" stroke="#353E5A" stroke-width="1.21876"/>
<mask id="path-14-inside-1_2304_16617" fill="white">
<ellipse cx="157.003" cy="34.7344" rx="1.82814" ry="0.609381"/>
</mask>
<ellipse cx="157.003" cy="34.7344" rx="1.82814" ry="0.609381" fill="white" fill-opacity="0.66"/>
<path d="M157.612 34.7344C157.612 34.285 157.887 34.0509 157.933 34.0143C157.993 33.967 158.005 33.9776 157.91 34.0091C157.734 34.0678 157.413 34.125 157.003 34.125V36.5625C157.602 36.5625 158.196 36.4833 158.681 36.3215C158.917 36.2427 159.197 36.122 159.442 35.9288C159.673 35.7464 160.05 35.352 160.05 34.7344H157.612ZM157.003 34.125C156.593 34.125 156.272 34.0678 156.096 34.0091C156.001 33.9776 156.013 33.967 156.073 34.0143C156.119 34.0509 156.394 34.285 156.394 34.7344H153.956C153.956 35.352 154.333 35.7464 154.564 35.9288C154.809 36.122 155.088 36.2427 155.325 36.3215C155.81 36.4833 156.404 36.5625 157.003 36.5625V34.125ZM156.394 34.7344C156.394 35.1837 156.119 35.4178 156.073 35.4544C156.013 35.5018 156.001 35.4912 156.096 35.4597C156.272 35.401 156.593 35.3438 157.003 35.3438V32.9062C156.404 32.9062 155.81 32.9854 155.325 33.1473C155.088 33.2261 154.809 33.3467 154.564 33.54C154.333 33.7223 153.956 34.1168 153.956 34.7344H156.394ZM157.003 35.3438C157.413 35.3438 157.734 35.401 157.91 35.4597C158.005 35.4912 157.993 35.5018 157.933 35.4544C157.887 35.4178 157.612 35.1837 157.612 34.7344H160.05C160.05 34.1168 159.673 33.7223 159.442 33.54C159.197 33.3467 158.917 33.2261 158.681 33.1473C158.196 32.9854 157.602 32.9062 157.003 32.9062V35.3438Z" fill="#353E5A" mask="url(#path-14-inside-1_2304_16617)"/>
<mask id="path-16-inside-2_2304_16617" fill="white">
<ellipse cx="157.003" cy="45.7034" rx="1.82814" ry="0.609381"/>
</mask>
<ellipse cx="157.003" cy="45.7034" rx="1.82814" ry="0.609381" fill="white" fill-opacity="0.66"/>
<path d="M157.612 45.7034C157.612 45.254 157.887 45.0199 157.933 44.9833C157.993 44.936 158.005 44.9466 157.91 44.9781C157.734 45.0368 157.413 45.094 157.003 45.094V47.5315C157.602 47.5315 158.196 47.4523 158.681 47.2905C158.917 47.2117 159.197 47.091 159.442 46.8978C159.673 46.7154 160.05 46.321 160.05 45.7034H157.612ZM157.003 45.094C156.593 45.094 156.272 45.0368 156.096 44.9781C156.001 44.9466 156.013 44.936 156.073 44.9833C156.119 45.0199 156.394 45.254 156.394 45.7034H153.956C153.956 46.321 154.333 46.7154 154.564 46.8978C154.809 47.091 155.088 47.2117 155.325 47.2905C155.81 47.4523 156.404 47.5315 157.003 47.5315V45.094ZM156.394 45.7034C156.394 46.1527 156.119 46.3868 156.073 46.4234C156.013 46.4708 156.001 46.4602 156.096 46.4287C156.272 46.37 156.593 46.3128 157.003 46.3128V43.8752C156.404 43.8752 155.81 43.9544 155.325 44.1163C155.088 44.1951 154.809 44.3157 154.564 44.5089C154.333 44.6913 153.956 45.0857 153.956 45.7034H156.394ZM157.003 46.3128C157.413 46.3128 157.734 46.37 157.91 46.4287C158.005 46.4602 157.993 46.4708 157.933 46.4234C157.887 46.3868 157.612 46.1527 157.612 45.7034H160.05C160.05 45.0857 159.673 44.6913 159.442 44.5089C159.197 44.3157 158.917 44.1951 158.681 44.1163C158.196 43.9544 157.602 43.8752 157.003 43.8752V46.3128Z" fill="#353E5A" mask="url(#path-16-inside-2_2304_16617)"/>
<mask id="path-18-inside-3_2304_16617" fill="white">
<ellipse cx="157.003" cy="26.2031" rx="1.82814" ry="0.609381"/>
</mask>
<ellipse cx="157.003" cy="26.2031" rx="1.82814" ry="0.609381" fill="white" fill-opacity="0.66"/>
<path d="M157.612 26.2031C157.612 25.7538 157.887 25.5197 157.933 25.4831C157.993 25.4357 158.005 25.4463 157.91 25.4778C157.734 25.5365 157.413 25.5938 157.003 25.5938V28.0313C157.602 28.0313 158.196 27.9521 158.681 27.7902C158.917 27.7115 159.197 27.5908 159.442 27.3976C159.673 27.2152 160.05 26.8208 160.05 26.2031H157.612ZM157.003 25.5938C156.593 25.5938 156.272 25.5365 156.096 25.4778C156.001 25.4463 156.013 25.4357 156.073 25.4831C156.119 25.5197 156.394 25.7538 156.394 26.2031H153.956C153.956 26.8208 154.333 27.2152 154.564 27.3976C154.809 27.5908 155.088 27.7115 155.325 27.7902C155.81 27.9521 156.404 28.0313 157.003 28.0313V25.5938ZM156.394 26.2031C156.394 26.6525 156.119 26.8866 156.073 26.9232C156.013 26.9706 156.001 26.9599 156.096 26.9285C156.272 26.8697 156.593 26.8125 157.003 26.8125V24.375C156.404 24.375 155.81 24.4542 155.325 24.616C155.088 24.6948 154.809 24.8155 154.564 25.0087C154.333 25.1911 153.956 25.5855 153.956 26.2031H156.394ZM157.003 26.8125C157.413 26.8125 157.734 26.8697 157.91 26.9285C158.005 26.9599 157.993 26.9706 157.933 26.9232C157.887 26.8866 157.612 26.6525 157.612 26.2031H160.05C160.05 25.5855 159.673 25.1911 159.442 25.0087C159.197 24.8155 158.917 24.6948 158.681 24.616C158.196 24.4542 157.602 24.375 157.003 24.375V26.8125Z" fill="#353E5A" mask="url(#path-18-inside-3_2304_16617)"/>
<mask id="path-20-inside-4_2304_16617" fill="white">
<ellipse cx="167.363" cy="34.7344" rx="1.21876" ry="0.609381"/>
</mask>
<ellipse cx="167.363" cy="34.7344" rx="1.21876" ry="0.609381" fill="white" fill-opacity="0.22"/>
<path d="M167.363 34.7344C167.363 34.4689 167.475 34.2797 167.556 34.1845C167.595 34.1383 167.629 34.11 167.649 34.0954C167.659 34.0878 167.667 34.0827 167.672 34.0796C167.677 34.0766 167.68 34.0752 167.68 34.0752C167.68 34.0751 167.678 34.0762 167.674 34.078C167.669 34.0798 167.663 34.0822 167.655 34.085C167.638 34.0907 167.615 34.0973 167.586 34.1035C167.526 34.116 167.451 34.125 167.363 34.125V36.5625C167.848 36.5625 168.347 36.4669 168.77 36.2554C169.12 36.0803 169.801 35.613 169.801 34.7344H167.363ZM167.363 34.125C167.276 34.125 167.2 34.116 167.141 34.1035C167.112 34.0973 167.089 34.0907 167.072 34.085C167.064 34.0822 167.057 34.0798 167.053 34.078C167.049 34.0762 167.046 34.0751 167.047 34.0752C167.047 34.0752 167.049 34.0766 167.054 34.0796C167.059 34.0827 167.067 34.0878 167.078 34.0954C167.097 34.11 167.132 34.1383 167.171 34.1845C167.251 34.2797 167.363 34.4689 167.363 34.7344H164.926C164.926 35.613 165.606 36.0803 165.956 36.2554C166.379 36.4669 166.879 36.5625 167.363 36.5625V34.125ZM167.363 34.7344C167.363 34.9999 167.251 35.1891 167.171 35.2843C167.132 35.3305 167.097 35.3587 167.078 35.3733C167.067 35.381 167.059 35.3861 167.054 35.3891C167.049 35.3922 167.047 35.3936 167.047 35.3936C167.046 35.3936 167.049 35.3926 167.053 35.3908C167.057 35.389 167.064 35.3865 167.072 35.3837C167.089 35.3781 167.112 35.3715 167.141 35.3653C167.2 35.3527 167.276 35.3438 167.363 35.3438V32.9062C166.879 32.9062 166.379 33.0019 165.956 33.2134C165.606 33.3884 164.926 33.8558 164.926 34.7344H167.363ZM167.363 35.3438C167.451 35.3438 167.526 35.3527 167.586 35.3653C167.615 35.3715 167.638 35.3781 167.655 35.3837C167.663 35.3865 167.669 35.389 167.674 35.3908C167.678 35.3926 167.68 35.3936 167.68 35.3936C167.68 35.3936 167.677 35.3922 167.672 35.3891C167.667 35.3861 167.659 35.381 167.649 35.3733C167.629 35.3587 167.595 35.3305 167.556 35.2843C167.475 35.1891 167.363 34.9999 167.363 34.7344H169.801C169.801 33.8558 169.12 33.3884 168.77 33.2134C168.347 33.0019 167.848 32.9062 167.363 32.9062V35.3438Z" fill="#353E5A" mask="url(#path-20-inside-4_2304_16617)"/>
<mask id="path-22-inside-5_2304_16617" fill="white">
<ellipse cx="166.144" cy="27.4219" rx="1.21876" ry="0.609381"/>
</mask>
<ellipse cx="166.144" cy="27.4219" rx="1.21876" ry="0.609381" fill="white" fill-opacity="0.22"/>
<path d="M166.144 27.4219C166.144 27.1564 166.256 26.9672 166.336 26.872C166.375 26.8258 166.409 26.7975 166.429 26.7829C166.439 26.7753 166.447 26.7702 166.452 26.7671C166.458 26.7641 166.46 26.7627 166.46 26.7627C166.46 26.7626 166.458 26.7637 166.454 26.7655C166.45 26.7673 166.443 26.7697 166.435 26.7725C166.418 26.7782 166.395 26.7848 166.366 26.791C166.306 26.8035 166.231 26.8125 166.144 26.8125V29.25C166.628 29.25 167.127 29.1544 167.55 28.9429C167.901 28.7678 168.581 28.3005 168.581 27.4219H166.144ZM166.144 26.8125C166.056 26.8125 165.981 26.8035 165.921 26.791C165.892 26.7848 165.869 26.7782 165.852 26.7725C165.844 26.7697 165.838 26.7673 165.833 26.7655C165.829 26.7637 165.827 26.7626 165.827 26.7627C165.827 26.7627 165.83 26.7641 165.835 26.7671C165.84 26.7702 165.848 26.7753 165.858 26.7829C165.878 26.7975 165.912 26.8258 165.951 26.872C166.032 26.9672 166.144 27.1564 166.144 27.4219H163.706C163.706 28.3005 164.387 28.7678 164.737 28.9429C165.16 29.1544 165.659 29.25 166.144 29.25V26.8125ZM166.144 27.4219C166.144 27.6874 166.032 27.8766 165.951 27.9718C165.912 28.018 165.878 28.0462 165.858 28.0608C165.848 28.0685 165.84 28.0736 165.835 28.0766C165.83 28.0797 165.827 28.0811 165.827 28.0811C165.827 28.0811 165.829 28.0801 165.833 28.0783C165.838 28.0765 165.844 28.074 165.852 28.0712C165.869 28.0656 165.892 28.059 165.921 28.0528C165.981 28.0402 166.056 28.0313 166.144 28.0313V25.5937C165.659 25.5937 165.16 25.6894 164.737 25.9009C164.387 26.0759 163.706 26.5433 163.706 27.4219H166.144ZM166.144 28.0313C166.231 28.0313 166.306 28.0402 166.366 28.0528C166.395 28.059 166.418 28.0656 166.435 28.0712C166.443 28.074 166.45 28.0765 166.454 28.0783C166.458 28.0801 166.46 28.0811 166.46 28.0811C166.46 28.0811 166.458 28.0797 166.452 28.0766C166.447 28.0736 166.439 28.0685 166.429 28.0608C166.409 28.0462 166.375 28.018 166.336 27.9718C166.256 27.8766 166.144 27.6874 166.144 27.4219H168.581C168.581 26.5433 167.901 26.0759 167.55 25.9009C167.127 25.6894 166.628 25.5937 166.144 25.5937V28.0313Z" fill="#353E5A" mask="url(#path-22-inside-5_2304_16617)"/>
<mask id="path-24-inside-6_2304_16617" fill="white">
<ellipse cx="166.144" cy="43.2659" rx="1.21876" ry="0.609381"/>
</mask>
<ellipse cx="166.144" cy="43.2659" rx="1.21876" ry="0.609381" fill="white" fill-opacity="0.22"/>
<path d="M166.144 43.2659C166.144 43.0004 166.256 42.8112 166.336 42.7159C166.375 42.6698 166.409 42.6415 166.429 42.6269C166.439 42.6193 166.447 42.6142 166.452 42.6111C166.458 42.6081 166.46 42.6067 166.46 42.6067C166.46 42.6066 166.458 42.6077 166.454 42.6095C166.45 42.6113 166.443 42.6137 166.435 42.6165C166.418 42.6222 166.395 42.6288 166.366 42.635C166.306 42.6475 166.231 42.6565 166.144 42.6565V45.094C166.628 45.094 167.127 44.9984 167.55 44.7869C167.901 44.6118 168.581 44.1445 168.581 43.2659H166.144ZM166.144 42.6565C166.056 42.6565 165.981 42.6475 165.921 42.635C165.892 42.6288 165.869 42.6222 165.852 42.6165C165.844 42.6137 165.838 42.6113 165.833 42.6095C165.829 42.6077 165.827 42.6066 165.827 42.6067C165.827 42.6067 165.83 42.6081 165.835 42.6111C165.84 42.6142 165.848 42.6193 165.858 42.6269C165.878 42.6415 165.912 42.6698 165.951 42.7159C166.032 42.8112 166.144 43.0004 166.144 43.2659H163.706C163.706 44.1445 164.387 44.6118 164.737 44.7869C165.16 44.9984 165.659 45.094 166.144 45.094V42.6565ZM166.144 43.2659C166.144 43.5313 166.032 43.7206 165.951 43.8158C165.912 43.862 165.878 43.8902 165.858 43.9048C165.848 43.9125 165.84 43.9176 165.835 43.9206C165.83 43.9237 165.827 43.925 165.827 43.9251C165.827 43.9251 165.829 43.9241 165.833 43.9223C165.838 43.9205 165.844 43.918 165.852 43.9152C165.869 43.9095 165.892 43.903 165.921 43.8968C165.981 43.8842 166.056 43.8753 166.144 43.8753V41.4377C165.659 41.4377 165.16 41.5334 164.737 41.7449C164.387 41.9199 163.706 42.3873 163.706 43.2659H166.144ZM166.144 43.8753C166.231 43.8753 166.306 43.8842 166.366 43.8968C166.395 43.903 166.418 43.9095 166.435 43.9152C166.443 43.918 166.45 43.9205 166.454 43.9223C166.458 43.9241 166.46 43.9251 166.46 43.9251C166.46 43.925 166.458 43.9237 166.452 43.9206C166.447 43.9176 166.439 43.9125 166.429 43.9048C166.409 43.8902 166.375 43.862 166.336 43.8158C166.256 43.7206 166.144 43.5313 166.144 43.2659H168.581C168.581 42.3873 167.901 41.9199 167.55 41.7449C167.127 41.5334 166.628 41.4377 166.144 41.4377V43.8753Z" fill="#353E5A" mask="url(#path-24-inside-6_2304_16617)"/>
</svg>
